<svg width="70" height="46" viewBox="0 0 70 46" fill="none" xmlns="http://www.w3.org/2000/svg">
<path d="M10.707 22.4718L13.9416 18.495L16.5539 9.80189L26.7081 0.728805L37.9495 5.41727L47.453 9.03772L51.7671 11.4739L54.7025 12.1619L56.239 10.8495L55.4682 8.09563L52.8559 5.16433L57.4262 0L56.5126 3.46075L54.2951 5.1579L56.4571 7.59082L57.707 11.2997L55.1654 13.8301L51.6206 13.671L52.4202 15.8515L52.5076 19.0068L54.3788 21.1096L56.0032 26.177L55.8159 26.6673L55.8661 28.9973L53.0541 29L53.5583 27.2091L54.0995 26.5301L53.1728 24.4814L51.618 23.0795L47.2825 21.8368L44.2848 19.3889L44.1232 17.554L43.0746 14.0338L43.5762 17.4833L43.3895 19.0963L33.898 18.7523L34.0188 17.195L33.3755 18.8412L29.5405 21.6814L31.7799 23.8742L33.7698 21.6814L36.0845 22.0088L34.9633 23.7215L34.0684 23.6701L32.6752 25.7606L26.6547 23.7724L25.9581 20.9172L27.5501 17.9082L26.8948 15.4046L26.6045 12.3007L26.3163 15.4046L26.7081 17.5031L24.0173 17.195L20.812 14.418L18.8027 14.5504L20.6253 14.8767L23.4677 17.8584L24.7553 20.1777L24.9043 21.2356L24.0403 21.34L24.0921 22.5356L23.1968 23.6063L20.3607 22.4215L18.2703 22.6889L16.6287 21.5035L11.7064 23.8759L15.509 19.3235L10.707 22.4718Z" fill="#A91D35"/>
<path d="M45.5022 10.474C45.5664 10.4984 45.6286 10.5277 45.6885 10.5615L47.302 11.4731C47.7154 11.7067 48.0322 12.0797 48.1957 12.5254L49.3181 15.5839C49.3926 15.787 49.4337 16.0008 49.4398 16.2171L49.5097 18.7216L49.5251 19.2961C49.5278 19.3956 49.5656 19.4909 49.6317 19.5652C49.9127 19.8808 49.6066 20.3675 49.2005 20.2511L47.4179 19.7398C47.2929 19.704 47.1766 19.6431 47.0758 19.5609L45.8573 18.5662C45.439 18.2248 45.1766 17.7288 45.1296 17.1909L45.1163 17.0382C45.1045 16.9037 45.0792 16.7707 45.0406 16.6412L43.7014 12.1455C43.3772 11.0574 44.4412 10.0698 45.5022 10.474ZM20.811 18.6766C20.8321 18.6987 20.8503 18.7234 20.8651 18.7502L21.0753 19.1283C21.0986 19.1702 21.0722 19.2224 21.0247 19.2284C20.9897 19.2329 20.964 19.2633 20.9655 19.2985L20.9845 19.7418C21.0017 20.1443 20.5946 20.4283 20.2228 20.2731L19.8392 20.113C19.7078 20.0581 19.5643 20.0387 19.423 20.0566L19.1074 20.0966L18.5855 20.1634C18.0819 20.2278 17.5727 20.0983 17.1611 19.8011L16.8008 19.541C16.75 19.504 16.7411 19.4318 16.7813 19.3835L17.8142 18.1458C18.4336 17.4035 19.5613 17.3661 20.2285 18.0658L20.811 18.6766ZM33.1483 5.65663C34.1516 6.07494 34.6371 7.21801 34.2415 8.23047L30.9028 16.7752C30.7851 17.0765 30.5848 17.3384 30.3248 17.5309L28.2573 19.0622C28.1926 19.1101 28.0999 19.0737 28.0851 18.9945C28.0806 18.9702 28.0844 18.9451 28.096 18.9233L28.3193 18.5029C28.5523 18.0614 28.6121 17.5436 28.4863 17.0605L27.9126 14.8742C27.885 14.7688 27.866 14.6612 27.8558 14.5527L27.0858 6.31219C26.9455 4.81045 28.4547 3.69971 29.8468 4.28014L33.1483 5.65663ZM36.1806 6.92183L36.209 6.93452L36.2383 6.94527L38.1408 7.66963C38.8189 7.9278 39.304 8.53295 39.4084 9.25096L40.1442 14.3115C40.3238 15.5468 39.3403 16.643 38.0928 16.598L37.1367 16.5635C36.0004 16.5224 35.1269 15.5437 35.2148 14.4101L35.7763 7.16882C35.7917 6.97022 35.9969 6.84488 36.1806 6.92183ZM23.4785 13.2319C23.4291 13.764 22.7987 14.0173 22.3948 13.6674C22.1241 13.433 22.0912 13.0249 22.3208 12.7501C22.7341 12.2555 23.5382 12.5901 23.4785 13.2319ZM23.8166 9.58764C23.7603 10.1938 23.431 10.7413 22.922 11.0751L21.2178 12.1926C21.041 12.3086 20.8086 12.293 20.6488 12.1545C20.5547 12.073 20.4323 12.0319 20.3081 12.04L18.2773 12.1734C17.562 12.2204 17.0197 11.5389 17.2262 10.8525C17.2807 10.6711 17.3843 10.5084 17.5255 10.3822L20.5109 7.71476C21.866 6.50401 24.003 7.58179 23.8349 9.39118L23.8166 9.58764Z" fill="#B88444"/>
<path d="M10.707 29H57.707V32H10.707V29Z" fill="#B88444"/>
<path d="M32.6074 45H28.2129V44.6045H29.3848V36.6064H28.2129V36.2109H32.6074V36.6064H31.4355V40.3857L35.625 36.6064H34.4531V36.2109H37.1631C37.1631 36.2598 37.1582 36.3086 37.1484 36.3574C37.1289 36.5234 37.002 36.6064 36.7676 36.6064C36.709 36.6064 36.6455 36.6113 36.5771 36.6211C36.3818 36.6699 36.0645 36.8945 35.625 37.2949L33.3984 39.3018L36.9727 44.6045H37.1045C37.3096 44.624 37.4414 44.7559 37.5 45L34.7021 45.0146L31.9043 40.6641L31.4355 41.0889V44.6045H32.2119C32.417 44.624 32.5488 44.7559 32.6074 45Z" fill="#114777"/>
<path d="M24.8877 36.6064V36.2109H27.8467V36.6064H26.6748V44.9268L25.8398 45.0732L20.2002 38.4961V44.6045H21.0498C21.2549 44.624 21.3867 44.7559 21.4453 45H18.4131V44.6045H19.585V36.6064H18.4131V36.2109H20.8887L26.0596 42.2754V36.6064H24.8877Z" fill="#114777"/>
<path d="M18.1934 45H14.2676V44.6045H15.3076L14.209 41.792H11.2939L10.2393 44.6045H11.0596C11.1182 44.6045 11.1719 44.6094 11.2207 44.6191C11.3477 44.6387 11.4111 44.7656 11.4111 45H8.71582V44.6045H9.65332L12.8613 36.2109H13.9453L17.4023 44.6045H17.8418C17.9004 44.6045 17.9541 44.6094 18.0029 44.6191C18.1299 44.6387 18.1934 44.7656 18.1934 45ZM14.0332 41.3525L12.7295 37.9834L11.4697 41.3525H14.0332Z" fill="#114777"/>
<path d="M7.69043 38.1885C7.69043 38.3838 7.65625 38.584 7.58789 38.7891C7.34375 39.4727 6.78223 39.9561 5.90332 40.2393C6.1377 40.2686 6.3623 40.3125 6.57715 40.3711C7.75879 40.6836 8.34961 41.3818 8.34961 42.4658C8.34961 42.9541 8.20312 43.4033 7.91016 43.8135C7.31445 44.6045 6.34766 45 5.00977 45H0V44.6045H1.17188V36.6064H0V36.2109H4.74609C5.2832 36.2109 5.76172 36.2695 6.18164 36.3867C7.1875 36.6797 7.69043 37.2803 7.69043 38.1885ZM3.92578 36.6064H3.22266V40.0342H4.04297C4.21875 40.0342 4.38477 40.0146 4.54102 39.9756C5.22461 39.7803 5.56641 39.2236 5.56641 38.3057C5.55664 37.1924 5.00977 36.626 3.92578 36.6064ZM4.42383 40.4443H3.22266V44.6045H4.2041C4.33105 44.6045 4.45801 44.5947 4.58496 44.5752C5.60059 44.4287 6.1084 43.6914 6.1084 42.3633C6.1084 42.0703 6.06445 41.7969 5.97656 41.543C5.72266 40.8105 5.20508 40.4443 4.42383 40.4443Z" fill="#114777"/>
<path d="M69.043 42.5537C69.043 43.1982 68.8135 43.7451 68.3545 44.1943C67.6904 44.8291 66.7383 45.1465 65.498 45.1465C64.4336 45.1465 63.5254 44.8975 62.7734 44.3994C62.7734 44.5654 62.7637 44.6973 62.7441 44.7949C62.6953 44.9512 62.5391 45.0293 62.2754 45.0293V41.9238H62.8467C62.8857 42.4414 62.9932 42.9004 63.1689 43.3008C63.5889 44.248 64.3164 44.7217 65.3516 44.7217C65.625 44.7217 65.874 44.6826 66.0986 44.6045C66.7236 44.3701 67.0361 43.9014 67.0361 43.1982C67.0361 42.9932 66.9922 42.793 66.9043 42.5977C66.6992 42.1875 66.1768 41.7627 65.3369 41.3232C64.3994 40.8447 63.8721 40.5664 63.7549 40.4883C62.8271 39.9121 62.3633 39.2188 62.3633 38.4082C62.3633 37.8613 62.5537 37.3877 62.9346 36.9873C63.5303 36.3721 64.4189 36.0645 65.6006 36.0645C66.499 36.0645 67.3535 36.2549 68.1641 36.6357C68.1641 36.5479 68.1689 36.4697 68.1787 36.4014C68.2275 36.2158 68.3887 36.123 68.6621 36.123V38.7744H68.0908C68.0811 38.2471 67.9541 37.793 67.71 37.4121C67.3096 36.8066 66.709 36.5039 65.9082 36.5039C65.7031 36.5039 65.5078 36.5332 65.3223 36.5918C64.7656 36.7773 64.4873 37.1582 64.4873 37.7344C64.4873 37.959 64.5361 38.1738 64.6338 38.3789C64.8389 38.7988 65.3516 39.2236 66.1719 39.6533C67.0703 40.1318 67.583 40.4053 67.71 40.4736C68.5986 41.0498 69.043 41.7432 69.043 42.5537Z" fill="#114777"/>
<path d="M61.3232 36.2109V36.6064H60.1514V44.6045H60.9277C61.1328 44.624 61.2646 44.7559 61.3232 45H57.002V44.6045H58.1738V37.6465L55.0244 45.1465H54.7607L51.6406 39.082V44.6045H52.417C52.6221 44.624 52.7539 44.7559 52.8125 45H49.8535V44.6045H51.0254V36.6064H49.8535V36.2109H52.4756L55.5518 42.5098L58.1738 36.2109H61.3232Z" fill="#114777"/>
<path d="M46.8633 43H44.4648V42.7969H45.0898V38.5156H44.4648V38.3125H48.1914L48.2227 39.7734H48.043L47.9023 39.3203C47.7513 38.7891 47.4622 38.5208 47.0352 38.5156H45.9258V40.4688H47.4961V40.6953H45.9258V42.7969H46.8633V43Z" fill="#114777"/>
<path d="M41.4805 38.2344C42.0326 38.2344 42.5195 38.3906 42.9414 38.7031C43.5456 39.151 43.8477 39.8047 43.8477 40.6641C43.8477 41.388 43.6055 41.9792 43.1211 42.4375C42.6628 42.8646 42.1081 43.0781 41.457 43.0781C40.8893 43.0781 40.3893 42.9115 39.957 42.5781C39.3685 42.1146 39.0742 41.4661 39.0742 40.6328C39.0742 39.9141 39.319 39.3281 39.8086 38.875C40.2669 38.4479 40.8242 38.2344 41.4805 38.2344ZM41.4805 42.8594C42.4076 42.8542 42.8737 42.1094 42.8789 40.625C42.8737 39.1875 42.3997 38.4635 41.457 38.4531C40.5143 38.4583 40.0404 39.1953 40.0352 40.6641C40.0404 42.1172 40.5221 42.849 41.4805 42.8594Z" fill="#114777"/>
</svg>
